HIERARCHY
ROOT hip
{
	OFFSET 0.000000 0.000000 0.000000
	CHANNELS 6 Xposition Yposition Zposition Xrotation Yrotation Zrotation
	JOINT abdomen
	{
		OFFSET 0.000000 20.688101 -0.731528
		CHANNELS 6 Xposition Yposition Zposition Xrotation Yrotation Zrotation
		JOINT chest
		{
			OFFSET 0.000000 11.704302 -0.487684
			CHANNELS 6 Xposition Yposition Zposition Xrotation Yrotation Zrotation
			JOINT neck
			{
				OFFSET 0.000000 22.189400 -2.194566
				CHANNELS 6 Xposition Yposition Zposition Xrotation Yrotation Zrotation
				JOINT head
				{
					OFFSET -0.243840 7.071331 1.219196
					CHANNELS 6 Xposition Yposition Zposition Xrotation Yrotation Zrotation
					JOINT leftEye
					{
						OFFSET 4.145280 8.046741 8.046718
						CHANNELS 6 Xposition Yposition Zposition Xrotation Yrotation Zrotation
						End Site
						{
							OFFSET 1.000000 0.000000 0.000000
						}
					}
					JOINT rightEye
					{
						OFFSET -3.657600 8.046741 8.046718
						CHANNELS 6 Xposition Yposition Zposition Xrotation Yrotation Zrotation
						End Site
						{
							OFFSET 1.000000 0.000000 0.000000
						}
					}
				}
			}
			JOINT rCollar
			{
				OFFSET -2.682240 19.263397 -4.876804
				CHANNELS 6 Xposition Yposition Zposition Xrotation Yrotation Zrotation
				JOINT rShldr
				{
					OFFSET -8.778240 -1.950729 1.463040
					CHANNELS 6 Xposition Yposition Zposition Xrotation Yrotation Zrotation
					JOINT rForeArm
					{
						OFFSET -28.174202 -1.711498 0.487680
						CHANNELS 6 Xposition Yposition Zposition Xrotation Yrotation Zrotation
						JOINT rHand
						{
							OFFSET -22.587898 0.773209 7.071362
							CHANNELS 6 Xposition Yposition Zposition Xrotation Yrotation Zrotation
							JOINT rThumb1
							{
								OFFSET -1.219200 -0.487915 3.413759
								CHANNELS 6 Xposition Yposition Zposition Xrotation Yrotation Zrotation
								JOINT rThumb2
								{
									OFFSET -3.370354 -0.524490 3.413760
									CHANNELS 6 Xposition Yposition Zposition Xrotation Yrotation Zrotation
									End Site
									{
										OFFSET -1.782707 -1.182140 1.430490
									}
								}
							}
							JOINT rIndex1
							{
								OFFSET -7.759468 0.938293 5.608319
								CHANNELS 6 Xposition Yposition Zposition Xrotation Yrotation Zrotation
								JOINT rIndex2
								{
									OFFSET -2.540573 -0.884171 1.565380
									CHANNELS 6 Xposition Yposition Zposition Xrotation Yrotation Zrotation
									End Site
									{
										OFFSET -1.625191 -0.234802 1.165020
									}
								}
							}
							JOINT rMid1
							{
								OFFSET -8.247139 1.182129 3.413759
								CHANNELS 6 Xposition Yposition Zposition Xrotation Yrotation Zrotation
								JOINT rMid2
								{
									OFFSET -3.101646 -0.590103 1.064700
									CHANNELS 6 Xposition Yposition Zposition Xrotation Yrotation Zrotation
									End Site
									{
										OFFSET -2.485474 -0.328903 0.837420
									}
								}
							}
							JOINT rRing1
							{
								OFFSET -8.828217 0.546677 1.516780
								CHANNELS 6 Xposition Yposition Zposition Xrotation Yrotation Zrotation
								JOINT rRing2
								{
									OFFSET -2.609337 -0.819778 -0.019849
									CHANNELS 6 Xposition Yposition Zposition Xrotation Yrotation Zrotation
									End Site
									{
										OFFSET -2.338417 -0.294052 0.168128
									}
								}
							}
							JOINT rPinky1
							{
								OFFSET -8.272018 -0.047791 -0.458400
								CHANNELS 6 Xposition Yposition Zposition Xrotation Yrotation Zrotation
								JOINT rPinky2
								{
									OFFSET -1.827339 -0.647385 -0.700984
									CHANNELS 6 Xposition Yposition Zposition Xrotation Yrotation Zrotation
									End Site
									{
										OFFSET -1.692253 -0.517670 -0.607171
									}
								}
							}
						}
					}
				}
			}
			JOINT lCollar
			{
				OFFSET 2.682240 19.263397 -4.876804
				CHANNELS 6 Xposition Yposition Zposition Xrotation Yrotation Zrotation
				JOINT lShldr
				{
					OFFSET 8.778240 -1.950729 1.463040
					CHANNELS 6 Xposition Yposition Zposition Xrotation Yrotation Zrotation
					JOINT lForeArm
					{
						OFFSET 28.174202 -1.711498 0.487680
						CHANNELS 6 Xposition Yposition Zposition Xrotation Yrotation Zrotation
						JOINT lHand
						{
							OFFSET 22.587898 0.773209 7.071362
							CHANNELS 6 Xposition Yposition Zposition Xrotation Yrotation Zrotation
							JOINT lThumb1
							{
								OFFSET 1.219200 -0.487915 3.413759
								CHANNELS 6 Xposition Yposition Zposition Xrotation Yrotation Zrotation
								JOINT lThumb2
								{
									OFFSET 3.370354 -0.524490 3.413760
									CHANNELS 6 Xposition Yposition Zposition Xrotation Yrotation Zrotation
									End Site
									{
										OFFSET 1.782707 -1.182140 1.430490
									}
								}
							}
							JOINT lIndex1
							{
								OFFSET 7.759468 0.938293 5.608319
								CHANNELS 6 Xposition Yposition Zposition Xrotation Yrotation Zrotation
								JOINT lIndex2
								{
									OFFSET 2.540573 -0.884171 1.565380
									CHANNELS 6 Xposition Yposition Zposition Xrotation Yrotation Zrotation
									End Site
									{
										OFFSET 1.625191 -0.234802 1.165020
									}
								}
							}
							JOINT lMid1
							{
								OFFSET 8.247139 1.182129 3.413759
								CHANNELS 6 Xposition Yposition Zposition Xrotation Yrotation Zrotation
								JOINT lMid2
								{
									OFFSET 3.101646 -0.590103 1.064700
									CHANNELS 6 Xposition Yposition Zposition Xrotation Yrotation Zrotation
									End Site
									{
										OFFSET 2.485474 -0.328903 0.837420
									}
								}
							}
							JOINT lRing1
							{
								OFFSET 8.828217 0.546677 1.516780
								CHANNELS 6 Xposition Yposition Zposition Xrotation Yrotation Zrotation
								JOINT lRing2
								{
									OFFSET 2.609337 -0.819778 -0.019849
									CHANNELS 6 Xposition Yposition Zposition Xrotation Yrotation Zrotation
									End Site
									{
										OFFSET 2.338417 -0.294052 0.168128
									}
								}
							}
							JOINT lPinky1
							{
								OFFSET 8.272018 -0.047791 -0.458400
								CHANNELS 6 Xposition Yposition Zposition Xrotation Yrotation Zrotation
								JOINT lPinky2
								{
									OFFSET 1.827339 -0.647385 -0.700984
									CHANNELS 6 Xposition Yposition Zposition Xrotation Yrotation Zrotation
									End Site
									{
										OFFSET 1.692253 -0.517670 -0.607171
									}
								}
							}
						}
					}
				}
			}
		}
	}
	JOINT rButtock
	{
		OFFSET -8.778240 4.350840 1.219200
		CHANNELS 6 Xposition Yposition Zposition Xrotation Yrotation Zrotation
		JOINT rThigh
		{
			OFFSET 0.000000 -1.706870 -2.194560
			CHANNELS 6 Xposition Yposition Zposition Xrotation Yrotation Zrotation
			JOINT rShin
			{
				OFFSET 0.000000 -36.819901 0.731532
				CHANNELS 6 Xposition Yposition Zposition Xrotation Yrotation Zrotation
				JOINT rFoot
				{
					OFFSET 0.731520 -45.110401 -5.120625
					CHANNELS 6 Xposition Yposition Zposition Xrotation Yrotation Zrotation
					End Site
					{
						OFFSET -1.122100 -3.699638 12.103000
					}
				}
			}
		}
	}
	JOINT lButtock
	{
		OFFSET 8.778240 4.350840 1.219200
		CHANNELS 6 Xposition Yposition Zposition Xrotation Yrotation Zrotation
		JOINT lThigh
		{
			OFFSET 0.000000 -1.706870 -2.194560
			CHANNELS 6 Xposition Yposition Zposition Xrotation Yrotation Zrotation
			JOINT lShin
			{
				OFFSET 0.000000 -36.819901 0.731532
				CHANNELS 6 Xposition Yposition Zposition Xrotation Yrotation Zrotation
				JOINT lFoot
				{
					OFFSET -0.731520 -45.110401 -5.120625
					CHANNELS 6 Xposition Yposition Zposition Xrotation Yrotation Zrotation
					End Site
					{
						OFFSET 1.122100 -3.699638 12.103000
					}
				}
			}
		}
	}
}
MOTION
Frames: 4
Frame Time: 0.008333
114.509003 49.412319 27.999485 90.238274 47.530928 -90.750285 0.000001 20.688122 -0.731504 13.723523 0.631396 -1.440098 0.000002 11.704360 -0.487696 -5.875192 0.464830 0.542144 -0.000002 22.189390 -2.194606 -12.545391 -2.590033 -5.770593 -0.243831 7.071295 1.219198 -20.850824 -5.731956 7.020772 4.145286 8.046756 8.046785 0.000006 0.000000 -0.000001 -3.657598 8.046757 8.046772 0.000003 0.000000 -0.000001 -2.682238 19.263418 -4.876803 -0.000017 0.000001 0.000001 -8.778247 -1.950706 1.463070 -75.940181 61.857991 39.323079 -28.174168 -1.711510 0.487684 0.273916 28.718470 -17.069932 -22.587927 0.773219 7.071378 25.170900 3.420758 -0.763767 -1.219234 -0.487922 3.413774 0.000005 0.000003 0.000009 -3.370332 -0.524497 3.413808 -0.000002 -0.000002 0.000010 -7.759438 0.938284 5.608335 0.000013 0.000006 0.000010 -2.540556 -0.884180 1.565399 5.369491 1.148929 7.696981 -8.247187 1.182124 3.413779 -0.000005 -0.000002 0.000002 -3.101640 -0.590136 1.064685 0.958721 0.151696 2.905143 -8.828267 0.546677 1.516797 0.000003 0.000000 -0.000003 -2.609345 -0.819749 -0.019848 0.715428 0.156068 10.277788 -8.272006 -0.047803 -0.458373 -0.000000 0.000003 0.000003 -1.827279 -0.647397 -0.700957 -0.724831 -0.237198 2.221513 2.682237 19.263399 -4.876823 -0.000013 -0.000003 -0.000001 8.778252 -1.950701 1.463060 -59.418985 -67.686505 -25.362092 28.174210 -1.711507 0.487662 1.394767 -33.729660 20.599661 22.587891 0.773207 7.071367 -5.513664 0.773657 0.037198 1.219200 -0.487939 3.413744 0.000002 -0.000000 -0.000004 3.370311 -0.524507 3.413800 -0.000010 0.000003 -0.000003 7.759438 0.938302 5.608324 0.000002 0.000008 -0.000008 2.540563 -0.884164 1.565371 5.369487 -1.148928 -7.696982 8.247176 1.182110 3.413748 -0.000000 0.000001 0.000001 3.101607 -0.590118 1.064696 0.958724 -0.151687 -2.905139 8.828172 0.546661 1.516775 -0.000000 -0.000002 -0.000001 2.609327 -0.819777 -0.019854 0.715441 -0.156069 -10.277793 8.272014 -0.047805 -0.458415 -0.000010 -0.000001 -0.000021 1.827314 -0.647413 -0.700974 -0.724834 0.237200 -2.221509 -8.778243 4.350877 1.219226 -0.000007 0.000000 -0.000000 -0.000005 -1.706873 -2.194543 -128.279217 0.293608 -5.314192 0.000010 -36.819908 0.731540 107.191145 -0.016990 -1.409002 0.731509 -45.110405 -5.120608 -7.772902 2.741791 1.238499 8.778241 4.350867 1.219219 -0.000007 0.000000 -0.000000 -0.000003 -1.706867 -2.194557 -127.807224 1.341785 10.901376 -0.000006 -36.819923 0.731537 106.991368 -0.616515 1.328861 -0.731523 -45.110397 -5.120644 -16.806901 1.532581 1.332398 
114.468002 48.784916 28.045786 90.433426 47.438717 -90.882545 0.000001 20.688152 -0.731519 14.187324 0.548623 -1.467874 0.000007 11.704289 -0.487659 -6.093221 0.444560 0.584591 0.000006 22.189421 -2.194603 -12.622779 -2.574316 -5.749178 -0.243842 7.071342 1.219203 -20.995006 -5.696846 6.962155 4.145279 8.046780 8.046714 -0.000003 0.000000 0.000001 -3.657593 8.046750 8.046738 -0.000006 0.000001 0.000001 -2.682232 19.263451 -4.876829 -0.000007 0.000002 0.000003 -8.778257 -1.950711 1.463062 -75.972836 61.789149 39.527705 -28.174152 -1.711527 0.487667 0.248774 28.579612 -16.976632 -22.587950 0.773220 7.071355 25.393911 3.448986 -0.777287 -1.219197 -0.487934 3.413777 0.000004 0.000004 -0.000003 -3.370353 -0.524488 3.413811 -0.000006 0.000005 0.000009 -7.759408 0.938307 5.608355 0.000007 0.000004 0.000010 -2.540541 -0.884186 1.565378 5.369490 1.148936 7.696985 -8.247126 1.182122 3.413784 0.000001 0.000001 0.000002 -3.101640 -0.590122 1.064700 0.958717 0.151694 2.905142 -8.828154 0.546660 1.516801 -0.000000 0.000002 -0.000002 -2.609344 -0.819813 -0.019846 0.715434 0.156069 10.277795 -8.271975 -0.047801 -0.458354 -0.000005 0.000003 0.000011 -1.827301 -0.647360 -0.700950 -0.724832 -0.237194 2.221512 2.682244 19.263468 -4.876834 -0.000012 -0.000001 0.000002 8.778250 -1.950801 1.463004 -59.325739 -67.721298 -25.391710 28.174221 -1.711526 0.487682 1.355379 -33.581472 20.489958 22.587891 0.773234 7.071365 -5.623366 0.788999 0.038752 1.219229 -0.487910 3.413760 0.000000 -0.000017 -0.000005 3.370398 -0.524504 3.413757 -0.000011 0.000005 -0.000007 7.759414 0.938310 5.608333 0.000006 -0.000001 -0.000009 2.540551 -0.884163 1.565407 5.369500 -1.148927 -7.696985 8.247143 1.182141 3.413770 -0.000002 0.000001 -0.000004 3.101594 -0.590140 1.064707 0.958722 -0.151697 -2.905143 8.828208 0.546703 1.516797 -0.000000 -0.000006 0.000001 2.609344 -0.819806 -0.019840 0.715431 -0.156072 -10.277795 8.271989 -0.047784 -0.458395 0.000002 -0.000006 -0.000011 1.827350 -0.647419 -0.700994 -0.724838 0.237194 -2.221498 -8.778234 4.350869 1.219198 -0.000010 0.000000 -0.000000 -0.000013 -1.706869 -2.194569 -129.398180 0.383569 -5.396581 0.000000 -36.819881 0.731525 108.269912 -0.041834 -1.429200 0.731517 -45.110405 -5.120672 -7.750284 2.707050 1.245014 8.778249 4.350875 1.219193 -0.000010 0.000000 -0.000000 0.000003 -1.706867 -2.194563 -128.881804 1.290463 11.018313 -0.000001 -36.819904 0.731528 107.993685 -0.600792 1.346740 -0.731522 -45.110420 -5.120630 -16.714156 1.384169 1.249304 
114.394997 48.191307 28.088690 90.624978 47.314284 -90.997155 0.000014 20.688145 -0.731502 14.640053 0.470332 -1.472174 -0.000003 11.704332 -0.487691 -6.329546 0.425350 0.611825 0.000005 22.189327 -2.194591 -12.758911 -2.545285 -5.623227 -0.243835 7.071349 1.219229 -21.037690 -5.620192 6.784161 4.145282 8.046726 8.046697 0.000001 0.000000 -0.000000 -3.657601 8.046741 8.046690 -0.000001 0.000000 -0.000000 -2.682242 19.263357 -4.876826 -0.000009 -0.000002 -0.000001 -8.778252 -1.950737 1.462980 -76.060372 61.720055 39.784967 -28.174181 -1.711471 0.487690 0.217279 28.403827 -16.859048 -22.587879 0.773199 7.071383 25.538371 3.467253 -0.786131 -1.219266 -0.487936 3.413754 -0.000000 -0.000008 0.000000 -3.370328 -0.524458 3.413785 -0.000000 -0.000001 0.000006 -7.759493 0.938307 5.608325 -0.000006 -0.000002 0.000002 -2.540570 -0.884127 1.565383 5.369498 1.148931 7.696983 -8.247169 1.182126 3.413769 -0.000004 -0.000001 -0.000001 -3.101621 -0.590104 1.064664 0.958727 0.151688 2.905137 -8.828208 0.546673 1.516788 -0.000000 0.000000 -0.000001 -2.609280 -0.819803 -0.019837 0.715429 0.156070 10.277791 -8.272041 -0.047789 -0.458397 -0.000003 -0.000003 0.000018 -1.827302 -0.647374 -0.700976 -0.724833 -0.237200 2.221514 2.682240 19.263325 -4.876818 -0.000000 -0.000001 0.000001 8.778238 -1.950718 1.463051 -59.100315 -67.753612 -25.344155 28.174240 -1.711507 0.487705 1.324748 -33.465086 20.403997 22.587851 0.773192 7.071345 -5.652320 0.793044 0.039185 1.219234 -0.487940 3.413741 -0.000004 -0.000001 -0.000009 3.370342 -0.524478 3.413770 -0.000005 -0.000004 -0.000015 7.759515 0.938282 5.608294 -0.000003 0.000001 -0.000010 2.540570 -0.884176 1.565362 5.369492 -1.148926 -7.696982 8.247158 1.182103 3.413752 -0.000000 0.000004 -0.000004 3.101606 -0.590114 1.064672 0.958733 -0.151691 -2.905138 8.828261 0.546657 1.516764 -0.000005 0.000002 0.000001 2.609302 -0.819762 -0.019870 0.715427 -0.156073 -10.277790 8.272045 -0.047809 -0.458422 -0.000005 -0.000002 -0.000014 1.827292 -0.647418 -0.700973 -0.724832 0.237196 -2.221502 -8.778234 4.350873 1.219222 0.000002 0.000000 -0.000000 -0.000008 -1.706892 -2.194556 -130.490477 0.402563 -5.495884 -0.000013 -36.819893 0.731526 109.304009 -0.065381 -1.448611 0.731516 -45.110378 -5.120614 -7.716911 2.669719 1.248159 8.778253 4.350875 1.219216 0.000002 0.000000 -0.000000 -0.000001 -1.706865 -2.194554 -129.942068 1.216810 11.136800 0.000002 -36.819901 0.731523 108.951182 -0.585468 1.363364 -0.731521 -45.110374 -5.120641 -16.577434 1.351309 1.233694 
114.373001 47.594421 28.128788 90.748188 47.349276 -91.062063 0.000002 20.688116 -0.731557 15.095254 0.396351 -1.461422 0.000007 11.704312 -0.487692 -6.578397 0.407226 0.629627 -0.000001 22.189341 -2.194564 -12.929260 -2.508233 -5.428391 -0.243844 7.071375 1.219208 -21.016670 -5.515981 6.526840 4.145278 8.046696 8.046637 0.000004 -0.000001 -0.000000 -3.657596 8.046703 8.046671 0.000002 0.000000 -0.000000 -2.682243 19.263348 -4.876803 0.000004 0.000005 -0.000000 -8.778250 -1.950705 1.463034 -76.203813 61.643878 40.093309 -28.174210 -1.711492 0.487681 0.181830 28.201834 -16.724111 -22.587927 0.773197 7.071358 25.655358 3.482035 -0.793328 -1.219248 -0.487937 3.413781 0.000002 0.000006 -0.000001 -3.370331 -0.524524 3.413806 -0.000003 -0.000005 0.000009 -7.759461 0.938308 5.608339 0.000002 0.000003 0.000002 -2.540542 -0.884150 1.565382 5.369494 1.148924 7.696975 -8.247192 1.182123 3.413774 -0.000005 0.000009 0.000001 -3.101606 -0.590124 1.064720 0.958728 0.151694 2.905139 -8.828245 0.546646 1.516806 -0.000000 0.000002 -0.000002 -2.609242 -0.819755 -0.019851 0.715429 0.156068 10.277793 -8.272023 -0.047804 -0.458375 -0.000006 0.000005 0.000006 -1.827297 -0.647354 -0.700978 -0.724832 -0.237196 2.221508 2.682232 19.263340 -4.876805 -0.000001 0.000001 -0.000002 8.778240 -1.950741 1.463020 -58.790963 -67.787886 -25.245009 28.174185 -1.711503 0.487697 1.299309 -33.368076 20.332539 22.587915 0.773230 7.071378 -5.635438 0.790682 0.038940 1.219195 -0.487951 3.413760 -0.000005 0.000006 0.000003 3.370375 -0.524505 3.413807 0.000005 0.000005 -0.000007 7.759462 0.938290 5.608321 -0.000003 0.000008 -0.000001 2.540522 -0.884162 1.565378 5.369497 -1.148935 -7.696979 8.247153 1.182079 3.413754 -0.000000 0.000015 0.000003 3.101586 -0.590095 1.064674 0.958720 -0.151684 -2.905140 8.828181 0.546644 1.516785 -0.000000 0.000003 0.000005 2.609327 -0.819776 -0.019851 0.715437 -0.156073 -10.277791 8.272010 -0.047798 -0.458397 -0.000002 0.000002 0.000001 1.827276 -0.647410 -0.700970 -0.724836 0.237196 -2.221510 -8.778231 4.350861 1.219182 -0.000010 0.000000 -0.000000 -0.000008 -1.706880 -2.194573 -131.548965 0.376877 -5.612738 0.000006 -36.819916 0.731529 110.299735 -0.090694 -1.467270 0.731519 -45.110424 -5.120624 -7.669473 2.630914 1.248712 8.778240 4.350845 1.219167 -0.000010 0.000000 -0.000000 -0.000005 -1.706867 -2.194565 -130.975229 1.126943 11.254894 -0.000011 -36.819931 0.731539 109.870348 -0.572431 1.379125 -0.731525 -45.110401 -5.120601 -16.408322 1.383066 1.255204 
